# xmcd
#
# Track frame offsets:
#	150
#	11592
#	23571
#	34406
#	46861
#	58630
#	70593
#	82815
#	93678
#	106927
#	118255
#	128029
#	140336
#	159585
#	172066
#
# Disc length: 2486 seconds
#
# Revision: 0
# Processed by: cddbd v1.5.2PL0 Copyright (c) Steve Scherf et al.
# Submitted via: EasyCDDAExtractor 16.0.9.1
#
DISCID=c109b40f
DTITLE=Otis Redding - The Definitive Soul Collection [CD1)
DYEAR=2006
DGENRE=Soul
TTITLE0=These Arms Of Mine
TTITLE1=That's What My Heart Needs
TTITLE2=Pain In My Heart
TTITLE3=Come To Me
TTITLE4=Security
TTITLE5=Chained And Bound
TTITLE6=Mr. Pitiful
TTITLE7=That's How Strong My Love Is
TTITLE8=I've Been Loving You Too Long (To Stop Now)
TTITLE9=I'm Depending On You
TTITLE10=Respect
TTITLE11=I Can't Turn You Loose
TTITLE12=A Change Gonna Come
TTITLE13=Satisfaction
TTITLE14=My Lover's Prayer
EXTD=
EXTT0=
EXTT1=
EXTT2=
EXTT3=
EXTT4=
EXTT5=
EXTT6=
EXTT7=
EXTT8=
EXTT9=
EXTT10=
EXTT11=
EXTT12=
EXTT13=
EXTT14=
PLAYORDER=
